<svg width="1200" height="800" xmlns="http://www.w3.org/2000/svg">
  <rect width="1200" height="800" fill="#f8f9fa"/>
  <text x="600" y="50" text-anchor="middle" font-family="Arial, sans-serif" font-size="24" fill="#2c3e50">PDAC Ecosystem Heterogeneity</text>

  <!-- PDAC Ecosystem Types -->
  <g transform="translate(100, 100)">
    <text x="0" y="0" font-size="18" font-weight="bold" fill="#34495e">Ecosystem Ecotypes</text>

    <!-- Immune-Excluded -->
    <g transform="translate(0, 30)">
      <rect x="0" y="0" width="350" height="200" fill="#e74c3c" opacity="0.2" stroke="#c0392b" stroke-width="2" rx="10"/>
      <text x="175" y="30" text-anchor="middle" font-size="18" fill="#2c3e50">Immune-Excluded</text>

      <circle cx="100" cy="100" r="25" fill="#e74c3c"/>
      <text x="100" y="105" text-anchor="middle" font-size="12" fill="white">Tumor</text>

      <rect x="200" y="80" width="100" height="40" fill="#95a5a6" rx="5"/>
      <text x="250" y="105" text-anchor="middle" font-size="12" fill="white">CAFs</text>

      <text x="175" y="170" text-anchor="middle" font-size="14" fill="#7f8c8d">40% of cases</text>
    </g>

    <!-- Immune-Inflamed -->
    <g transform="translate(400, 30)">
      <rect x="0" y="0" width="350" height="200" fill="#3498db" opacity="0.2" stroke="#2980b9" stroke-width="2" rx="10"/>
      <text x="175" y="30" text-anchor="middle" font-size="18" fill="#2c3e50">Immune-Inflamed</text>

      <circle cx="100" cy="100" r="25" fill="#e74c3c"/>
      <text x="100" y="105" text-anchor="middle" font-size="12" fill="white">Tumor</text>

      <circle cx="200" cy="100" r="25" fill="#2ecc71"/>
      <text x="200" y="105" text-anchor="middle" font-size="12" fill="white">TILs</text>

      <circle cx="300" cy="100" r="20" fill="#f39c12"/>
      <text x="300" y="105" text-anchor="middle" font-size="12" fill="white">B Cells</text>

      <text x="175" y="170" text-anchor="middle" font-size="14" fill="#7f8c8d">35% of cases</text>
    </g>

    <!-- Immune-Desert -->
    <g transform="translate(800, 30)">
      <rect x="0" y="0" width="350" height="200" fill="#f39c12" opacity="0.2" stroke="#d68910" stroke-width="2" rx="10"/>
      <text x="175" y="30" text-anchor="middle" font-size="18" fill="#2c3e50">Immune-Desert</text>

      <circle cx="175" cy="100" r="25" fill="#e74c3c"/>
      <text x="175" y="105" text-anchor="middle" font-size="12" fill="white">Tumor</text>

      <text x="175" y="170" text-anchor="middle" font-size="14" fill="#7f8c8d">25% of cases</text>
    </g>
  </g>

  <!-- Spatial Organization -->
  <g transform="translate(100, 380)">
    <text x="0" y="0" font-size="18" font-weight="bold" fill="#34495e">Spatial Organization</text>

    <!-- Tumor Core -->
    <ellipse cx="300" cy="150" rx="80" ry="60" fill="#e74c3c" opacity="0.3"/>
    <text x="300" y="155" text-anchor="middle" font-size="14" fill="#2c3e50">Tumor Core</text>

    <!-- Peritumoral Stroma -->
    <ellipse cx="300" cy="150" rx="150" ry="120" fill="none" stroke="#34495e" stroke-width="2" stroke-dasharray="5,5"/>
    <text x="300" cy="280" text-anchor="middle" font-size="14" fill="#34495e">Peritumoral Stroma</text>

    <!-- Blood Vessel -->
    <rect x="250" y="30" width="100" height="30" fill="#3498db" rx="15"/>
    <text x="300" y="50" text-anchor="middle" font-size="12" fill="white">Blood Vessel</text>

    <!-- Immune cells -->
    <circle cx="200" cy="120" r="8" fill="#2ecc71"/>
    <circle cx="400" cy="180" r="8" fill="#2ecc71"/>
    <circle cx="350" cy="100" r="8" fill="#f39c12"/>
    <text x="370" y="105" font-size="12" fill="#2c3e50">Immune</text>

    <!-- Cancer-Associated Fibroblasts -->
    <circle cx="450" cy="200" r="10" fill="#95a5a6"/>
    <circle cx="150" cy="200" r="10" fill="#95a5a6"/>
    <text x="150" y="220" text-anchor="middle" font-size="12" fill="#2c3e50">CAFs</text>
    <text x="450" y="220" text-anchor="middle" font-size="12" fill="#2c3e50">CAFs</text>
  </g>

  <!-- Key Findings -->
  <g transform="translate(100, 650)">
    <rect x="0" y="0" width="1000" height="120" fill="white" stroke="#ddd" rx="10"/>
    <text x="500" y="30" text-anchor="middle" font-size="16" font-weight="bold" fill="#2c3e50">Key Findings</text>

    <text x="50" y="60" font-size="14" fill="#34495e">• Immune-inflamed subtype shows best response to immunotherapy</text>
    <text x="50" y="85" font-size="14" fill="#34495e">• Immune-excluded subtype enriched in metabolic pathways</text>
    <text x="50" y="110" font-size="14" fill="#34495e">• Immune-desert subtype associated with poor prognosis</text>
  </g>
</svg>