<svg width="1200" height="800" xmlns="http://www.w3.org/2000/svg">
  <rect width="1200" height="800" fill="#f8f9fa"/>
  <text x="600" y="50" text-anchor="middle" font-family="Arial, sans-serif" font-size="24" fill="#2c3e50">
    PDAC Ecosystem Heterogeneity
  </text>

  <!-- Ecotype 1 -->
  <g transform="translate(100, 100)">
    <rect x="0" y="0" width="300" height="200" fill="#e74c3c" opacity="0.3" stroke="#c0392b" stroke-width="2" rx="10"/>
    <text x="150" y="30" text-anchor="middle" font-size="18" fill="#2c3e50">Immune-Excluded</text>
    <circle cx="80" cy="80" r="20" fill="#3498db"/>
    <text x="80" y="85" text-anchor="middle" font-size="12" fill="white">Tumor</text>
    <circle cx="220" cy="80" r="15" fill="#95a5a6"/>
    <text x="220" y="85" text-anchor="middle" font-size="10" fill="white">CAFs</text>
    <text x="150" y="180" text-anchor="middle" font-size="14" fill="#7f8c8d">40% of cases</text>
  </g>

  <!-- Ecotype 2 -->
  <g transform="translate(450, 100)">
    <rect x="0" y="0" width="300" height="200" fill="#3498db" opacity="0.3" stroke="#2980b9" stroke-width="2" rx="10"/>
    <text x="150" y="30" text-anchor="middle" font-size="18" fill="#2c3e50">Immune-Inflamed</text>
    <circle cx="80" cy="80" r="20" fill="#e74c3c"/>
    <text x="80" y="85" text-anchor="middle" font-size="12" fill="white">Tumor</text>
    <circle cx="220" cy="80" r="20" fill="#2ecc71"/>
    <text x="220" y="85" text-anchor="middle" font-size="10" fill="white">TILs</text>
    <text x="150" y="180" text-anchor="middle" font-size="14" fill="#7f8c8d">35% of cases</text>
  </g>

  <!-- Ecotype 3 -->
  <g transform="translate(800, 100)">
    <rect x="0" y="0" width="300" height="200" fill="#f39c12" opacity="0.3" stroke="#d68910" stroke-width="2" rx="10"/>
    <text x="150" y="30" text-anchor="middle" font-size="18" fill="#2c3e50">Immune-Desert</text>
    <circle cx="150" cy="100" r="20" fill="#e74c3c"/>
    <text x="150" y="105" text-anchor="middle" font-size="12" fill="white">Tumor</text>
    <text x="150" y="180" text-anchor="middle" font-size="14" fill="#7f8c8d">25% of cases</text>
  </g>

  <!-- Spatial organization diagram -->
  <g transform="translate(100, 350)">
    <text x="0" y="0" font-size="18" fill="#2c3e50">Spatial Organization</text>

    <!-- Central tumor -->
    <circle cx="300" cy="200" r="80" fill="#e74c3c" opacity="0.5"/>
    <text x="300" y="205" text-anchor="middle" font-size="14" fill="white">Tumor Core</text>

    <!-- Peritumoral region -->
    <circle cx="300" cy="200" r="150" fill="none" stroke="#34495e" stroke-width="2" stroke-dasharray="5,5"/>
    <text x="300" y="370" text-anchor="middle" font-size="14" fill="#34495e">Peritumoral Stroma</text>

    <!-- Blood vessel -->
    <rect x="250" y="80" width="100" height="30" fill="#3498db" rx="15"/>
    <text x="300" y="100" text-anchor="middle" font-size="12" fill="white">Blood Vessel</text>

    <!-- Immune cells -->
    <circle cx="200" cy="150" r="10" fill="#2ecc71"/>
    <circle cx="400" cy="250" r="10" fill="#2ecc71"/>
    <circle cx="450" cy="180" r="10" fill="#2ecc71"/>
    <text x="470" y="185" font-size="12" fill="#2ecc71">TILs</text>
  </g>

  <!-- Legend -->
  <g transform="translate(700, 350)">
    <text x="0" y="0" font-size="16" fill="#2c3e50">Legend</text>
    <rect x="0" y="20" width="20" height="20" fill="#e74c3c"/>
    <text x="30" y="35" font-size="14" fill="#2c3e50">Tumor Cells</text>
    <rect x="0" y="50" width="20" height="20" fill="#3498db"/>
    <text x="30" y="65" font-size="14" fill="#2c3e50">CAFs</text>
    <rect x="0" y="80" width="20" height="20" fill="#2ecc71"/>
    <text x="30" y="95" font-size="14" fill="#2c3e50">Immune Cells</text>
    <rect x="0" y="110" width="20" height="20" fill="#95a5a6"/>
    <text x="30" y="125" font-size="14" fill="#2c3e50">Other Stroma</text>
  </g>
</svg>